# xmcd CD database file
#
# Track frame offsets:
#	150
#	22723
#	42158
#	60967
#	72784
#	85130
#	108022
#	128084
#	142347
#	158648
#	180815
#	195392
#	220958
#	241177
#	264835
#	286293
#	304644
#	323927
#	345087
#
# Disc length: 4792 seconds
#
# Revision: 0
# Processed by: cddbd v1.5.1PL2 Copyright (c) Steve Scherf et al.
# Submitted via: NeoAudio 9.9.9
#
DISCID=ed12b613
DTITLE=Varios - Salsa y de la Buena
DYEAR=1998
DGENRE=Salsa
TTITLE0=El Jibarito
TTITLE1=Cantando Se Fue
TTITLE2=Castigala
TTITLE3=Pachanga en Changa
TTITLE4=Monte Adentro
TTITLE5=Como Lo Haces Conmigo
TTITLE6=Compañera Mia
TTITLE7=Copas y Amigos
TTITLE8=Bachata
TTITLE9=Culpame
TTITLE10=El Carretero
TTITLE11=Yo No Soy Un Angel
TTITLE12=Cuando Se Quiere
TTITLE13=(Vivo) Señora Ley
TTITLE14=Sin Rumbo Alguno
TTITLE15=Tu Cinturita
TTITLE16=Mia
TTITLE17=Tu Me Haces Falta
TTITLE18=Me Dejaron Fuera
EXTD=YEAR: 1998
EXTT0=
EXTT1=
EXTT2=
EXTT3=
EXTT4=
EXTT5=
EXTT6=
EXTT7=
EXTT8=
EXTT9=
EXTT10=
EXTT11=
EXTT12=
EXTT13=
EXTT14=
EXTT15=
EXTT16=
EXTT17=
EXTT18=
PLAYORDER=
